<?xml version="1.0" encoding="utf-8" standalone="no"?>
<!DOCTYPE svg PUBLIC "-//W3C//DTD SVG 1.1//EN"
  "http://www.w3.org/Graphics/SVG/1.1/DTD/svg11.dtd">
<svg xmlns:xlink="http://www.w3.org/1999/xlink" width="1944pt" height="432pt" viewBox="0 0 1944 432" xmlns="http://www.w3.org/2000/svg" version="1.1">
 <metadata>
  <rdf:RDF xmlns:dc="http://purl.org/dc/elements/1.1/" xmlns:cc="http://creativecommons.org/ns#" xmlns:rdf="http://www.w3.org/1999/02/22-rdf-syntax-ns#">
   <cc:Work>
    <dc:type rdf:resource="http://purl.org/dc/dcmitype/StillImage"/>
    <dc:date>2023-06-04T11:16:12.457441</dc:date>
    <dc:format>image/svg+xml</dc:format>
    <dc:creator>
     <cc:Agent>
      <dc:title>Matplotlib v3.7.1, https://matplotlib.org/</dc:title>
     </cc:Agent>
    </dc:creator>
   </cc:Work>
  </rdf:RDF>
 </metadata>
 <defs>
  <style type="text/css">*{stroke-linejoin: round; stroke-linecap: butt}</style>
 </defs>
 <g id="figure_1">
  <g id="patch_1">
   <path d="M 0 432 
L 1944 432 
L 1944 0 
L 0 0 
z
" style="fill: #ffffff"/>
  </g>
  <g id="axes_1">
   <g id="patch_2">
    <path d="M 243 384.48 
L 1749.6 384.48 
L 1749.6 51.84 
L 243 51.84 
z
" style="fill: #eaeaf2"/>
   </g>
   <g id="matplotlib.axis_1">
    <g id="xtick_1">
     <g id="line2d_1">
      <path d="M 324.882577 384.48 
L 324.882577 51.84 
" clip-path="url(#p4163725706)" style="fill: none; stroke: #ffffff; stroke-width: 0.8; stroke-linecap: round"/>
     </g>
     <g id="text_1">
      <!-- 2014 -->
      <g style="fill: #262626" transform="translate(302.638827 405.795625) scale(0.2 -0.2)">
       <defs>
        <path id="ArialMT-32" d="M 3222 541 
L 3222 0 
L 194 0 
Q 188 203 259 391 
Q 375 700 629 1000 
Q 884 1300 1366 1694 
Q 2113 2306 2375 2664 
Q 2638 3022 2638 3341 
Q 2638 3675 2398 3904 
Q 2159 4134 1775 4134 
Q 1369 4134 1125 3890 
Q 881 3647 878 3216 
L 300 3275 
Q 359 3922 746 4261 
Q 1134 4600 1788 4600 
Q 2447 4600 2831 4234 
Q 3216 3869 3216 3328 
Q 3216 3053 3103 2787 
Q 2991 2522 2730 2228 
Q 2469 1934 1863 1422 
Q 1356 997 1212 845 
Q 1069 694 975 541 
L 3222 541 
z
" transform="scale(0.015625)"/>
        <path id="ArialMT-30" d="M 266 2259 
Q 266 3072 433 3567 
Q 600 4063 929 4331 
Q 1259 4600 1759 4600 
Q 2128 4600 2406 4451 
Q 2684 4303 2865 4023 
Q 3047 3744 3150 3342 
Q 3253 2941 3253 2259 
Q 3253 1453 3087 958 
Q 2922 463 2592 192 
Q 2263 -78 1759 -78 
Q 1097 -78 719 397 
Q 266 969 266 2259 
z
M 844 2259 
Q 844 1131 1108 757 
Q 1372 384 1759 384 
Q 2147 384 2411 759 
Q 2675 1134 2675 2259 
Q 2675 3391 2411 3762 
Q 2147 4134 1753 4134 
Q 1366 4134 1134 3806 
Q 844 3388 844 2259 
z
" transform="scale(0.015625)"/>
        <path id="ArialMT-31" d="M 2384 0 
L 1822 0 
L 1822 3584 
Q 1619 3391 1289 3197 
Q 959 3003 697 2906 
L 697 3450 
Q 1169 3672 1522 3987 
Q 1875 4303 2022 4600 
L 2384 4600 
L 2384 0 
z
" transform="scale(0.015625)"/>
        <path id="ArialMT-34" d="M 2069 0 
L 2069 1097 
L 81 1097 
L 81 1613 
L 2172 4581 
L 2631 4581 
L 2631 1613 
L 3250 1613 
L 3250 1097 
L 2631 1097 
L 2631 0 
L 2069 0 
z
M 2069 1613 
L 2069 3678 
L 634 1613 
L 2069 1613 
z
" transform="scale(0.015625)"/>
       </defs>
       <use xlink:href="#ArialMT-32"/>
       <use xlink:href="#ArialMT-30" x="55.615234"/>
       <use xlink:href="#ArialMT-31" x="111.230469"/>
       <use xlink:href="#ArialMT-34" x="166.845703"/>
      </g>
     </g>
    </g>
    <g id="xtick_2">
     <g id="line2d_2">
      <path d="M 468.743663 384.48 
L 468.743663 51.84 
" clip-path="url(#p4163725706)" style="fill: none; stroke: #ffffff; stroke-width: 0.8; stroke-linecap: round"/>
     </g>
     <g id="text_2">
      <!-- 2015 -->
      <g style="fill: #262626" transform="translate(446.499913 405.795625) scale(0.2 -0.2)">
       <defs>
        <path id="ArialMT-35" d="M 266 1200 
L 856 1250 
Q 922 819 1161 601 
Q 1400 384 1738 384 
Q 2144 384 2425 690 
Q 2706 997 2706 1503 
Q 2706 1984 2436 2262 
Q 2166 2541 1728 2541 
Q 1456 2541 1237 2417 
Q 1019 2294 894 2097 
L 366 2166 
L 809 4519 
L 3088 4519 
L 3088 3981 
L 1259 3981 
L 1013 2750 
Q 1425 3038 1878 3038 
Q 2478 3038 2890 2622 
Q 3303 2206 3303 1553 
Q 3303 931 2941 478 
Q 2500 -78 1738 -78 
Q 1113 -78 717 272 
Q 322 622 266 1200 
z
" transform="scale(0.015625)"/>
       </defs>
       <use xlink:href="#ArialMT-32"/>
       <use xlink:href="#ArialMT-30" x="55.615234"/>
       <use xlink:href="#ArialMT-31" x="111.230469"/>
       <use xlink:href="#ArialMT-35" x="166.845703"/>
      </g>
     </g>
    </g>
    <g id="xtick_3">
     <g id="line2d_3">
      <path d="M 612.604748 384.48 
L 612.604748 51.84 
" clip-path="url(#p4163725706)" style="fill: none; stroke: #ffffff; stroke-width: 0.8; stroke-linecap: round"/>
     </g>
     <g id="text_3">
      <!-- 2016 -->
      <g style="fill: #262626" transform="translate(590.360998 405.795625) scale(0.2 -0.2)">
       <defs>
        <path id="ArialMT-36" d="M 3184 3459 
L 2625 3416 
Q 2550 3747 2413 3897 
Q 2184 4138 1850 4138 
Q 1581 4138 1378 3988 
Q 1113 3794 959 3422 
Q 806 3050 800 2363 
Q 1003 2672 1297 2822 
Q 1591 2972 1913 2972 
Q 2475 2972 2870 2558 
Q 3266 2144 3266 1488 
Q 3266 1056 3080 686 
Q 2894 316 2569 119 
Q 2244 -78 1831 -78 
Q 1128 -78 684 439 
Q 241 956 241 2144 
Q 241 3472 731 4075 
Q 1159 4600 1884 4600 
Q 2425 4600 2770 4297 
Q 3116 3994 3184 3459 
z
M 888 1484 
Q 888 1194 1011 928 
Q 1134 663 1356 523 
Q 1578 384 1822 384 
Q 2178 384 2434 671 
Q 2691 959 2691 1453 
Q 2691 1928 2437 2201 
Q 2184 2475 1800 2475 
Q 1419 2475 1153 2201 
Q 888 1928 888 1484 
z
" transform="scale(0.015625)"/>
       </defs>
       <use xlink:href="#ArialMT-32"/>
       <use xlink:href="#ArialMT-30" x="55.615234"/>
       <use xlink:href="#ArialMT-31" x="111.230469"/>
       <use xlink:href="#ArialMT-36" x="166.845703"/>
      </g>
     </g>
    </g>
    <g id="xtick_4">
     <g id="line2d_4">
      <path d="M 756.859974 384.48 
L 756.859974 51.84 
" clip-path="url(#p4163725706)" style="fill: none; stroke: #ffffff; stroke-width: 0.8; stroke-linecap: round"/>
     </g>
     <g id="text_4">
      <!-- 2017 -->
      <g style="fill: #262626" transform="translate(734.616224 405.795625) scale(0.2 -0.2)">
       <defs>
        <path id="ArialMT-37" d="M 303 3981 
L 303 4522 
L 3269 4522 
L 3269 4084 
Q 2831 3619 2401 2847 
Q 1972 2075 1738 1259 
Q 1569 684 1522 0 
L 944 0 
Q 953 541 1156 1306 
Q 1359 2072 1739 2783 
Q 2119 3494 2547 3981 
L 303 3981 
z
" transform="scale(0.015625)"/>
       </defs>
       <use xlink:href="#ArialMT-32"/>
       <use xlink:href="#ArialMT-30" x="55.615234"/>
       <use xlink:href="#ArialMT-31" x="111.230469"/>
       <use xlink:href="#ArialMT-37" x="166.845703"/>
      </g>
     </g>
    </g>
    <g id="xtick_5">
     <g id="line2d_5">
      <path d="M 900.72106 384.48 
L 900.72106 51.84 
" clip-path="url(#p4163725706)" style="fill: none; stroke: #ffffff; stroke-width: 0.8; stroke-linecap: round"/>
     </g>
     <g id="text_5">
      <!-- 2018 -->
      <g style="fill: #262626" transform="translate(878.47731 405.795625) scale(0.2 -0.2)">
       <defs>
        <path id="ArialMT-38" d="M 1131 2484 
Q 781 2613 612 2850 
Q 444 3088 444 3419 
Q 444 3919 803 4259 
Q 1163 4600 1759 4600 
Q 2359 4600 2725 4251 
Q 3091 3903 3091 3403 
Q 3091 3084 2923 2848 
Q 2756 2613 2416 2484 
Q 2838 2347 3058 2040 
Q 3278 1734 3278 1309 
Q 3278 722 2862 322 
Q 2447 -78 1769 -78 
Q 1091 -78 675 323 
Q 259 725 259 1325 
Q 259 1772 486 2073 
Q 713 2375 1131 2484 
z
M 1019 3438 
Q 1019 3113 1228 2906 
Q 1438 2700 1772 2700 
Q 2097 2700 2305 2904 
Q 2513 3109 2513 3406 
Q 2513 3716 2298 3927 
Q 2084 4138 1766 4138 
Q 1444 4138 1231 3931 
Q 1019 3725 1019 3438 
z
M 838 1322 
Q 838 1081 952 856 
Q 1066 631 1291 507 
Q 1516 384 1775 384 
Q 2178 384 2440 643 
Q 2703 903 2703 1303 
Q 2703 1709 2433 1975 
Q 2163 2241 1756 2241 
Q 1359 2241 1098 1978 
Q 838 1716 838 1322 
z
" transform="scale(0.015625)"/>
       </defs>
       <use xlink:href="#ArialMT-32"/>
       <use xlink:href="#ArialMT-30" x="55.615234"/>
       <use xlink:href="#ArialMT-31" x="111.230469"/>
       <use xlink:href="#ArialMT-38" x="166.845703"/>
      </g>
     </g>
    </g>
    <g id="xtick_6">
     <g id="line2d_6">
      <path d="M 1044.582145 384.48 
L 1044.582145 51.84 
" clip-path="url(#p4163725706)" style="fill: none; stroke: #ffffff; stroke-width: 0.8; stroke-linecap: round"/>
     </g>
     <g id="text_6">
      <!-- 2019 -->
      <g style="fill: #262626" transform="translate(1022.338395 405.795625) scale(0.2 -0.2)">
       <defs>
        <path id="ArialMT-39" d="M 350 1059 
L 891 1109 
Q 959 728 1153 556 
Q 1347 384 1650 384 
Q 1909 384 2104 503 
Q 2300 622 2425 820 
Q 2550 1019 2634 1356 
Q 2719 1694 2719 2044 
Q 2719 2081 2716 2156 
Q 2547 1888 2255 1720 
Q 1963 1553 1622 1553 
Q 1053 1553 659 1965 
Q 266 2378 266 3053 
Q 266 3750 677 4175 
Q 1088 4600 1706 4600 
Q 2153 4600 2523 4359 
Q 2894 4119 3086 3673 
Q 3278 3228 3278 2384 
Q 3278 1506 3087 986 
Q 2897 466 2520 194 
Q 2144 -78 1638 -78 
Q 1100 -78 759 220 
Q 419 519 350 1059 
z
M 2653 3081 
Q 2653 3566 2395 3850 
Q 2138 4134 1775 4134 
Q 1400 4134 1122 3828 
Q 844 3522 844 3034 
Q 844 2597 1108 2323 
Q 1372 2050 1759 2050 
Q 2150 2050 2401 2323 
Q 2653 2597 2653 3081 
z
" transform="scale(0.015625)"/>
       </defs>
       <use xlink:href="#ArialMT-32"/>
       <use xlink:href="#ArialMT-30" x="55.615234"/>
       <use xlink:href="#ArialMT-31" x="111.230469"/>
       <use xlink:href="#ArialMT-39" x="166.845703"/>
      </g>
     </g>
    </g>
    <g id="xtick_7">
     <g id="line2d_7">
      <path d="M 1188.443231 384.48 
L 1188.443231 51.84 
" clip-path="url(#p4163725706)" style="fill: none; stroke: #ffffff; stroke-width: 0.8; stroke-linecap: round"/>
     </g>
     <g id="text_7">
      <!-- 2020 -->
      <g style="fill: #262626" transform="translate(1166.199481 405.795625) scale(0.2 -0.2)">
       <use xlink:href="#ArialMT-32"/>
       <use xlink:href="#ArialMT-30" x="55.615234"/>
       <use xlink:href="#ArialMT-32" x="111.230469"/>
       <use xlink:href="#ArialMT-30" x="166.845703"/>
      </g>
     </g>
    </g>
    <g id="xtick_8">
     <g id="line2d_8">
      <path d="M 1332.698457 384.48 
L 1332.698457 51.84 
" clip-path="url(#p4163725706)" style="fill: none; stroke: #ffffff; stroke-width: 0.8; stroke-linecap: round"/>
     </g>
     <g id="text_8">
      <!-- 2021 -->
      <g style="fill: #262626" transform="translate(1310.454707 405.795625) scale(0.2 -0.2)">
       <use xlink:href="#ArialMT-32"/>
       <use xlink:href="#ArialMT-30" x="55.615234"/>
       <use xlink:href="#ArialMT-32" x="111.230469"/>
       <use xlink:href="#ArialMT-31" x="166.845703"/>
      </g>
     </g>
    </g>
    <g id="xtick_9">
     <g id="line2d_9">
      <path d="M 1476.559542 384.48 
L 1476.559542 51.84 
" clip-path="url(#p4163725706)" style="fill: none; stroke: #ffffff; stroke-width: 0.8; stroke-linecap: round"/>
     </g>
     <g id="text_9">
      <!-- 2022 -->
      <g style="fill: #262626" transform="translate(1454.315792 405.795625) scale(0.2 -0.2)">
       <use xlink:href="#ArialMT-32"/>
       <use xlink:href="#ArialMT-30" x="55.615234"/>
       <use xlink:href="#ArialMT-32" x="111.230469"/>
       <use xlink:href="#ArialMT-32" x="166.845703"/>
      </g>
     </g>
    </g>
    <g id="xtick_10">
     <g id="line2d_10">
      <path d="M 1620.420628 384.48 
L 1620.420628 51.84 
" clip-path="url(#p4163725706)" style="fill: none; stroke: #ffffff; stroke-width: 0.8; stroke-linecap: round"/>
     </g>
     <g id="text_10">
      <!-- 2023 -->
      <g style="fill: #262626" transform="translate(1598.176878 405.795625) scale(0.2 -0.2)">
       <defs>
        <path id="ArialMT-33" d="M 269 1209 
L 831 1284 
Q 928 806 1161 595 
Q 1394 384 1728 384 
Q 2125 384 2398 659 
Q 2672 934 2672 1341 
Q 2672 1728 2419 1979 
Q 2166 2231 1775 2231 
Q 1616 2231 1378 2169 
L 1441 2663 
Q 1497 2656 1531 2656 
Q 1891 2656 2178 2843 
Q 2466 3031 2466 3422 
Q 2466 3731 2256 3934 
Q 2047 4138 1716 4138 
Q 1388 4138 1169 3931 
Q 950 3725 888 3313 
L 325 3413 
Q 428 3978 793 4289 
Q 1159 4600 1703 4600 
Q 2078 4600 2393 4439 
Q 2709 4278 2876 4000 
Q 3044 3722 3044 3409 
Q 3044 3113 2884 2869 
Q 2725 2625 2413 2481 
Q 2819 2388 3044 2092 
Q 3269 1797 3269 1353 
Q 3269 753 2831 336 
Q 2394 -81 1725 -81 
Q 1122 -81 723 278 
Q 325 638 269 1209 
z
" transform="scale(0.015625)"/>
       </defs>
       <use xlink:href="#ArialMT-32"/>
       <use xlink:href="#ArialMT-30" x="55.615234"/>
       <use xlink:href="#ArialMT-32" x="111.230469"/>
       <use xlink:href="#ArialMT-33" x="166.845703"/>
      </g>
     </g>
    </g>
   </g>
   <g id="matplotlib.axis_2">
    <g id="ytick_1">
     <g id="line2d_11">
      <path d="M 243 369.974634 
L 1749.6 369.974634 
" clip-path="url(#p4163725706)" style="fill: none; stroke: #ffffff; stroke-width: 0.8; stroke-linecap: round"/>
     </g>
     <g id="text_11">
      <!-- 0 -->
      <g style="fill: #262626" transform="translate(224.878125 377.132447) scale(0.2 -0.2)">
       <use xlink:href="#ArialMT-30"/>
      </g>
     </g>
    </g>
    <g id="ytick_2">
     <g id="line2d_12">
      <path d="M 243 308.51122 
L 1749.6 308.51122 
" clip-path="url(#p4163725706)" style="fill: none; stroke: #ffffff; stroke-width: 0.8; stroke-linecap: round"/>
     </g>
     <g id="text_12">
      <!-- 100 -->
      <g style="fill: #262626" transform="translate(202.634375 315.669032) scale(0.2 -0.2)">
       <use xlink:href="#ArialMT-31"/>
       <use xlink:href="#ArialMT-30" x="55.615234"/>
       <use xlink:href="#ArialMT-30" x="111.230469"/>
      </g>
     </g>
    </g>
    <g id="ytick_3">
     <g id="line2d_13">
      <path d="M 243 247.047805 
L 1749.6 247.047805 
" clip-path="url(#p4163725706)" style="fill: none; stroke: #ffffff; stroke-width: 0.8; stroke-linecap: round"/>
     </g>
     <g id="text_13">
      <!-- 200 -->
      <g style="fill: #262626" transform="translate(202.634375 254.205617) scale(0.2 -0.2)">
       <use xlink:href="#ArialMT-32"/>
       <use xlink:href="#ArialMT-30" x="55.615234"/>
       <use xlink:href="#ArialMT-30" x="111.230469"/>
      </g>
     </g>
    </g>
    <g id="ytick_4">
     <g id="line2d_14">
      <path d="M 243 185.58439 
L 1749.6 185.58439 
" clip-path="url(#p4163725706)" style="fill: none; stroke: #ffffff; stroke-width: 0.8; stroke-linecap: round"/>
     </g>
     <g id="text_14">
      <!-- 300 -->
      <g style="fill: #262626" transform="translate(202.634375 192.742203) scale(0.2 -0.2)">
       <use xlink:href="#ArialMT-33"/>
       <use xlink:href="#ArialMT-30" x="55.615234"/>
       <use xlink:href="#ArialMT-30" x="111.230469"/>
      </g>
     </g>
    </g>
    <g id="ytick_5">
     <g id="line2d_15">
      <path d="M 243 124.120976 
L 1749.6 124.120976 
" clip-path="url(#p4163725706)" style="fill: none; stroke: #ffffff; stroke-width: 0.8; stroke-linecap: round"/>
     </g>
     <g id="text_15">
      <!-- 400 -->
      <g style="fill: #262626" transform="translate(202.634375 131.278788) scale(0.2 -0.2)">
       <use xlink:href="#ArialMT-34"/>
       <use xlink:href="#ArialMT-30" x="55.615234"/>
       <use xlink:href="#ArialMT-30" x="111.230469"/>
      </g>
     </g>
    </g>
    <g id="ytick_6">
     <g id="line2d_16">
      <path d="M 243 62.657561 
L 1749.6 62.657561 
" clip-path="url(#p4163725706)" style="fill: none; stroke: #ffffff; stroke-width: 0.8; stroke-linecap: round"/>
     </g>
     <g id="text_16">
      <!-- 500 -->
      <g style="fill: #262626" transform="translate(202.634375 69.815373) scale(0.2 -0.2)">
       <use xlink:href="#ArialMT-35"/>
       <use xlink:href="#ArialMT-30" x="55.615234"/>
       <use xlink:href="#ArialMT-30" x="111.230469"/>
      </g>
     </g>
    </g>
   </g>
   <g id="line2d_17">
    <path d="M 311.481818 339.857561 
L 311.875958 284.540488 
L 312.270098 344.16 
L 312.664238 365.672195 
L 313.058378 368.745366 
L 313.452518 361.369756 
L 313.846658 338.628293 
L 314.240798 368.745366 
L 314.634938 369.36 
L 317.393918 355.223415 
L 317.788058 323.877073 
L 318.182198 366.286829 
L 319.758757 355.838049 
L 320.152897 367.516098 
L 320.547037 368.130732 
L 320.941177 369.36 
L 321.335317 349.077073 
L 321.729457 363.828293 
L 322.123597 344.774634 
L 322.517737 346.618537 
L 322.911877 259.955122 
L 323.306017 358.91122 
L 323.700157 338.013659 
L 324.094297 339.242927 
L 324.488437 328.179512 
L 324.882577 344.774634 
L 325.276717 367.516098 
L 325.670857 341.701463 
L 326.064997 347.847805 
L 326.459137 363.828293 
L 326.853277 359.525854 
L 327.247417 365.057561 
L 328.035697 365.672195 
L 328.429836 358.91122 
L 328.823976 299.291707 
L 329.218116 364.442927 
L 329.612256 368.745366 
L 330.006396 369.36 
L 330.400536 355.223415 
L 330.794676 368.130732 
L 331.188816 368.130732 
L 331.582956 363.828293 
L 331.977096 361.369756 
L 332.371236 369.36 
L 334.736076 369.36 
L 335.524356 355.838049 
L 335.918496 362.599024 
L 336.706776 358.91122 
L 337.100916 351.53561 
L 337.495056 366.286829 
L 337.889196 365.057561 
L 339.071615 368.745366 
L 339.465755 368.745366 
L 339.859895 358.91122 
L 340.254035 368.745366 
L 341.436455 354.60878 
L 341.830595 368.130732 
L 342.224735 367.516098 
L 342.618875 369.36 
L 343.013015 360.140488 
L 344.589575 368.745366 
L 345.377855 369.36 
L 348.136835 369.36 
L 349.319254 365.057561 
L 349.713394 365.057561 
L 350.501674 358.91122 
L 351.684094 368.745366 
L 352.472374 364.442927 
L 353.260654 364.442927 
L 353.654794 366.901463 
L 354.048934 366.286829 
L 354.443074 346.618537 
L 354.837214 368.130732 
L 355.231354 368.130732 
L 355.625494 367.516098 
L 356.019634 369.36 
L 356.413774 361.98439 
L 357.202054 369.36 
L 359.566893 369.36 
L 359.961033 363.828293 
L 360.355173 368.130732 
L 360.749313 369.36 
L 361.537593 368.130732 
L 361.931733 369.36 
L 362.325873 344.774634 
L 363.114153 368.130732 
L 364.296573 365.672195 
L 364.690713 368.130732 
L 365.084853 368.745366 
L 365.873133 367.516098 
L 367.449693 367.516098 
L 367.843833 369.36 
L 368.632112 368.745366 
L 369.814532 369.36 
L 370.208672 350.306341 
L 370.602812 368.745366 
L 373.361792 368.745366 
L 374.150072 369.36 
L 376.120772 360.755122 
L 378.879751 369.36 
L 379.273891 365.672195 
L 380.062171 360.755122 
L 380.456311 349.691707 
L 380.850451 369.36 
L 381.638731 368.745366 
L 383.215291 368.130732 
L 383.609431 369.36 
L 384.003571 368.745366 
L 387.550831 368.745366 
L 389.12739 369.36 
L 391.09809 368.130732 
L 393.06879 369.36 
L 393.85707 369.36 
L 395.43363 368.130732 
L 396.22191 369.36 
L 397.40433 369.36 
L 400.163309 361.98439 
L 404.104709 369.36 
L 409.228528 366.901463 
L 409.622668 369.36 
L 410.805088 360.140488 
L 411.199228 369.36 
L 411.593368 369.36 
L 413.169928 368.745366 
L 413.958208 368.745366 
L 414.352348 347.233171 
L 414.746488 358.91122 
L 415.534768 361.369756 
L 415.928908 368.130732 
L 416.323048 358.296585 
L 416.717188 341.701463 
L 417.111328 366.901463 
L 417.505468 352.150244 
L 417.899608 369.36 
L 418.293748 368.130732 
L 418.687888 368.745366 
L 419.870307 314.042927 
L 420.264447 317.116098 
L 421.052727 366.901463 
L 422.235147 369.36 
L 422.629287 367.516098 
L 423.417567 368.745366 
L 424.205847 368.130732 
L 424.599987 353.994146 
L 424.994127 368.745366 
L 425.782407 320.189268 
L 426.176547 368.745366 
L 426.570687 369.36 
L 426.964827 369.36 
L 427.358967 298.677073 
L 428.147247 367.516098 
L 428.541387 336.78439 
L 428.935526 368.745366 
L 429.329666 365.057561 
L 429.723806 368.745366 
L 430.512086 367.516098 
L 430.906226 249.506341 
L 431.300366 355.223415 
L 431.694506 368.745366 
L 432.482786 368.745366 
L 432.876926 369.36 
L 433.271066 363.828293 
L 433.665206 367.516098 
L 434.059346 368.745366 
L 434.453486 352.764878 
L 434.847626 362.599024 
L 435.241766 368.745366 
L 435.635906 369.36 
L 436.424186 369.36 
L 436.818326 365.672195 
L 437.212466 365.672195 
L 438.394886 368.130732 
L 438.789026 367.516098 
L 439.183165 361.369756 
L 440.759725 356.452683 
L 441.153865 366.286829 
L 441.548005 355.223415 
L 441.942145 363.213659 
L 442.336285 347.233171 
L 443.124565 365.672195 
L 443.912845 367.516098 
L 444.306985 365.672195 
L 444.701125 367.516098 
L 445.095265 357.681951 
L 446.277685 357.067317 
L 446.671825 360.140488 
L 447.854245 363.828293 
L 449.036664 355.838049 
L 449.430804 369.36 
L 449.824944 366.901463 
L 450.613224 357.681951 
L 451.007364 367.516098 
L 452.189784 345.389268 
L 452.583924 315.272195 
L 452.978064 369.36 
L 453.372204 360.755122 
L 453.766344 360.755122 
L 454.160484 368.745366 
L 454.554624 366.286829 
L 454.948764 368.745366 
L 455.342904 367.516098 
L 455.737044 310.355122 
L 456.131184 365.672195 
L 456.525324 366.901463 
L 456.919464 365.057561 
L 457.313604 307.281951 
L 458.101884 368.130732 
L 458.496024 342.930732 
L 458.890164 346.618537 
L 459.678443 369.36 
L 460.072583 369.36 
L 460.860863 367.516098 
L 461.255003 360.140488 
L 461.649143 369.36 
L 462.043283 358.91122 
L 462.831563 369.36 
L 464.013983 369.36 
L 464.408123 368.130732 
L 464.802263 368.745366 
L 465.196403 367.516098 
L 465.590543 365.057561 
L 465.984683 367.516098 
L 466.378823 367.516098 
L 466.772963 361.369756 
L 468.349523 344.16 
L 468.743663 352.764878 
L 469.531942 364.442927 
L 471.108502 363.828293 
L 471.502642 367.516098 
L 471.896782 364.442927 
L 472.290922 365.057561 
L 472.685062 360.755122 
L 473.079202 365.057561 
L 473.473342 364.442927 
L 473.867482 363.213659 
L 474.261622 369.36 
L 474.655762 369.36 
L 475.049902 358.91122 
L 475.444042 368.745366 
L 476.232322 369.36 
L 477.020602 368.130732 
L 477.414742 360.140488 
L 477.808882 356.452683 
L 478.203022 356.452683 
L 478.597162 359.525854 
L 478.991302 368.745366 
L 479.385441 367.516098 
L 479.779581 368.745366 
L 480.173721 368.745366 
L 480.567861 364.442927 
L 480.962001 366.286829 
L 481.750281 350.306341 
L 483.720981 369.36 
L 484.115121 369.36 
L 484.903401 368.745366 
L 485.297541 356.452683 
L 485.691681 367.516098 
L 486.085821 369.36 
L 486.479961 368.130732 
L 487.268241 369.36 
L 491.60378 369.36 
L 492.7862 355.838049 
L 493.18034 368.745366 
L 493.57448 368.130732 
L 493.96862 361.369756 
L 495.15104 363.213659 
L 495.54518 361.369756 
L 495.93932 369.36 
L 496.7276 366.286829 
L 497.51588 366.901463 
L 498.30416 368.745366 
L 498.6983 369.36 
L 499.09244 369.36 
L 499.880719 363.828293 
L 501.063139 369.36 
L 503.033839 357.067317 
L 503.427979 365.672195 
L 504.216259 366.901463 
L 505.398679 366.286829 
L 506.975239 369.36 
L 508.157659 368.130732 
L 508.551799 361.369756 
L 508.945939 369.36 
L 509.340078 368.745366 
L 509.734218 357.067317 
L 510.128358 369.36 
L 510.522498 369.36 
L 510.916638 366.901463 
L 513.281478 368.745366 
L 514.069758 368.745366 
L 515.252178 369.36 
L 516.040458 355.838049 
L 518.011158 369.36 
L 518.405298 365.057561 
L 519.193578 369.36 
L 520.770137 369.36 
L 521.164277 368.745366 
L 523.134977 367.516098 
L 523.529117 369.36 
L 523.923257 358.91122 
L 524.317397 365.057561 
L 526.288097 364.442927 
L 527.470517 360.755122 
L 527.864657 368.745366 
L 528.258797 369.36 
L 528.652937 365.057561 
L 529.441216 369.36 
L 529.835356 365.057561 
L 530.229496 368.745366 
L 531.411916 368.745366 
L 531.806056 369.36 
L 532.200196 357.067317 
L 532.594336 365.672195 
L 532.988476 326.33561 
L 533.382616 353.379512 
L 535.747456 363.213659 
L 536.141596 352.764878 
L 536.929876 358.296585 
L 537.324016 368.745366 
L 539.294716 368.745366 
L 539.688855 369.36 
L 540.871275 366.901463 
L 541.265415 362.599024 
L 542.447835 363.828293 
L 542.841975 361.369756 
L 544.418535 368.130732 
L 544.812675 362.599024 
L 545.206815 359.525854 
L 545.600955 360.140488 
L 546.783375 363.213659 
L 548.359935 368.745366 
L 548.754075 362.599024 
L 549.148215 362.599024 
L 549.936494 365.672195 
L 550.330634 369.36 
L 551.118914 369.36 
L 551.513054 362.599024 
L 551.907194 368.745366 
L 552.301334 361.369756 
L 552.695474 356.452683 
L 553.089614 369.36 
L 555.060314 361.98439 
L 555.454454 367.516098 
L 555.848594 369.36 
L 557.031014 368.130732 
L 557.819294 368.130732 
L 558.213434 368.745366 
L 559.001714 368.130732 
L 559.395853 367.516098 
L 559.789993 368.745366 
L 560.184133 368.745366 
L 561.760693 369.36 
L 563.731393 357.067317 
L 564.125533 347.847805 
L 566.096233 368.745366 
L 566.884513 331.867317 
L 567.672793 365.057561 
L 568.066933 368.130732 
L 568.855213 362.599024 
L 569.249353 368.745366 
L 570.037632 358.91122 
L 570.825912 368.745366 
L 572.008332 363.828293 
L 572.402472 365.672195 
L 573.584892 366.286829 
L 573.979032 366.901463 
L 574.373172 366.286829 
L 574.767312 362.599024 
L 575.161452 367.516098 
L 575.555592 368.745366 
L 576.738012 366.901463 
L 577.526292 368.745366 
L 584.226671 369.36 
L 586.197371 367.516098 
L 586.591511 369.36 
L 586.985651 297.447805 
L 587.379791 347.847805 
L 587.773931 366.286829 
L 588.168071 368.745366 
L 588.562211 366.286829 
L 588.956351 368.745366 
L 589.350491 368.130732 
L 590.13877 345.389268 
L 590.92705 363.828293 
L 591.71533 369.36 
L 592.50361 336.78439 
L 592.89775 248.277073 
L 593.68603 369.36 
L 594.08017 344.774634 
L 595.65673 365.672195 
L 596.05087 368.745366 
L 596.83915 363.828293 
L 597.23329 355.838049 
L 597.62743 366.901463 
L 598.02157 368.130732 
L 598.41571 368.130732 
L 599.20399 369.36 
L 599.598129 309.125854 
L 599.992269 365.672195 
L 600.780549 354.60878 
L 601.174689 366.286829 
L 601.568829 333.71122 
L 602.357109 368.745366 
L 602.751249 368.745366 
L 603.145389 365.057561 
L 603.539529 367.516098 
L 603.933669 368.130732 
L 605.116089 369.36 
L 605.904369 350.920976 
L 606.298509 344.774634 
L 606.692649 311.58439 
L 607.086789 369.36 
L 607.480929 364.442927 
L 607.875069 367.516098 
L 608.269209 365.672195 
L 608.663349 366.286829 
L 609.451629 369.36 
L 609.845768 339.242927 
L 610.239908 266.101463 
L 610.634048 361.98439 
L 611.028188 363.828293 
L 611.422328 363.213659 
L 611.816468 271.018537 
L 612.210608 328.179512 
L 612.604748 312.199024 
L 612.998888 368.745366 
L 613.393028 367.516098 
L 614.181308 369.36 
L 614.575448 367.516098 
L 614.969588 368.130732 
L 615.757868 358.296585 
L 616.152008 369.36 
L 616.546148 368.745366 
L 616.940288 369.36 
L 617.334428 365.672195 
L 617.728568 360.755122 
L 618.122708 360.140488 
L 618.516848 360.755122 
L 619.305128 369.36 
L 620.093407 368.130732 
L 620.881687 365.672195 
L 621.275827 332.481951 
L 621.669967 365.057561 
L 622.064107 367.516098 
L 622.458247 360.140488 
L 623.246527 369.36 
L 623.640667 357.067317 
L 624.034807 357.067317 
L 624.428947 368.745366 
L 624.823087 368.130732 
L 625.611367 345.389268 
L 626.005507 368.745366 
L 626.399647 369.36 
L 626.793787 368.745366 
L 627.187927 369.36 
L 627.582067 366.286829 
L 628.370347 367.516098 
L 628.764487 369.36 
L 629.158627 360.755122 
L 630.341046 368.745366 
L 630.735186 368.745366 
L 631.523466 369.36 
L 632.311746 350.920976 
L 632.705886 366.901463 
L 635.464866 369.36 
L 635.859006 369.36 
L 636.647286 367.516098 
L 637.435566 355.838049 
L 637.829706 366.901463 
L 638.223846 366.901463 
L 639.406266 366.286829 
L 639.800405 369.36 
L 642.165245 369.36 
L 642.559385 363.828293 
L 642.953525 366.286829 
L 643.347665 362.599024 
L 643.741805 369.36 
L 645.318365 369.36 
L 645.712505 351.53561 
L 646.106645 363.828293 
L 646.500785 369.36 
L 647.289065 355.838049 
L 647.683205 369.36 
L 648.077345 369.36 
L 648.471485 368.745366 
L 648.865625 362.599024 
L 650.442184 369.36 
L 651.230464 366.286829 
L 652.018744 366.286829 
L 652.807024 352.764878 
L 653.201164 369.36 
L 653.595304 353.379512 
L 653.989444 349.691707 
L 654.383584 341.701463 
L 654.777724 366.286829 
L 655.960144 369.36 
L 656.354284 369.36 
L 656.748424 358.91122 
L 657.142564 366.286829 
L 659.113264 368.745366 
L 659.507404 366.286829 
L 659.901543 369.36 
L 660.295683 365.057561 
L 660.689823 368.130732 
L 662.266383 369.36 
L 663.842943 369.36 
L 664.631223 368.130732 
L 665.419503 365.057561 
L 665.813643 364.442927 
L 666.601923 368.745366 
L 667.390203 368.130732 
L 667.784343 369.36 
L 668.178483 351.53561 
L 668.572623 369.36 
L 668.966763 368.745366 
L 669.360903 365.672195 
L 670.149182 347.233171 
L 670.543322 369.36 
L 671.331602 366.286829 
L 671.725742 369.36 
L 673.696442 368.745366 
L 674.484722 369.36 
L 674.878862 368.745366 
L 675.273002 357.067317 
L 675.667142 364.442927 
L 676.061282 368.130732 
L 677.637842 368.745366 
L 678.031982 369.36 
L 679.608542 369.36 
L 682.367521 368.745366 
L 683.155801 367.516098 
L 683.549941 360.755122 
L 684.732361 357.067317 
L 687.097201 363.213659 
L 687.491341 368.745366 
L 687.885481 368.745366 
L 688.279621 367.516098 
L 689.856181 368.745366 
L 690.25032 369.36 
L 690.64446 366.901463 
L 691.0386 369.36 
L 692.22102 368.745366 
L 692.61516 369.36 
L 693.40344 368.745366 
L 694.58586 368.745366 
L 694.98 369.36 
L 695.37414 368.130732 
L 695.76828 369.36 
L 696.55656 361.98439 
L 697.34484 369.36 
L 698.13312 368.745366 
L 698.52726 368.130732 
L 699.31554 363.213659 
L 699.70968 368.130732 
L 700.103819 365.672195 
L 700.497959 330.638049 
L 700.892099 368.745366 
L 701.286239 363.828293 
L 701.680379 365.672195 
L 702.862799 366.286829 
L 704.045219 369.36 
L 705.621779 368.130732 
L 706.015919 369.36 
L 707.198339 368.745366 
L 707.592479 358.91122 
L 708.380759 365.672195 
L 709.563179 369.36 
L 710.745598 365.672195 
L 711.139738 368.745366 
L 711.533878 369.36 
L 713.110438 354.60878 
L 713.504578 369.36 
L 714.292858 369.36 
L 714.686998 368.130732 
L 715.081138 368.130732 
L 715.475278 365.057561 
L 716.263558 367.516098 
L 716.657698 366.286829 
L 717.051838 368.745366 
L 717.445978 367.516098 
L 717.840118 357.067317 
L 718.234258 366.286829 
L 718.628398 367.516098 
L 719.022538 364.442927 
L 719.416678 367.516098 
L 720.204957 368.130732 
L 720.599097 369.36 
L 720.993237 366.901463 
L 721.387377 368.130732 
L 721.781517 357.067317 
L 722.175657 367.516098 
L 722.569797 369.36 
L 724.540497 356.452683 
L 724.934637 369.36 
L 725.722917 367.516098 
L 726.117057 368.130732 
L 726.511197 366.901463 
L 727.299477 369.36 
L 727.693617 369.36 
L 728.087757 368.745366 
L 729.270177 368.130732 
L 729.664317 369.36 
L 730.058457 368.745366 
L 730.846736 369.36 
L 731.240876 364.442927 
L 731.635016 368.130732 
L 732.029156 363.828293 
L 732.817436 369.36 
L 733.999856 369.36 
L 734.788136 367.516098 
L 735.182276 368.745366 
L 735.970556 349.691707 
L 736.364696 366.286829 
L 736.758836 368.745366 
L 737.152976 366.901463 
L 737.941256 368.745366 
L 739.123676 369.36 
L 740.306095 369.36 
L 740.700235 368.130732 
L 741.094375 367.516098 
L 741.488515 366.286829 
L 741.882655 366.286829 
L 742.276795 358.91122 
L 742.670935 367.516098 
L 743.065075 367.516098 
L 743.459215 360.755122 
L 743.853355 361.369756 
L 744.247495 368.745366 
L 744.641635 366.286829 
L 745.035775 369.36 
L 745.824055 362.599024 
L 746.218195 369.36 
L 746.612335 368.130732 
L 747.006475 369.36 
L 747.400615 369.36 
L 748.188895 368.745366 
L 748.583035 366.901463 
L 748.977175 366.901463 
L 749.371315 341.086829 
L 749.765455 367.516098 
L 750.159595 365.672195 
L 750.553734 369.36 
L 751.342014 369.36 
L 751.736154 367.516098 
L 752.130294 366.901463 
L 752.918574 369.36 
L 753.312714 368.130732 
L 753.706854 366.286829 
L 754.100994 369.36 
L 754.889274 369.36 
L 756.465834 359.525854 
L 757.254114 368.745366 
L 757.648254 367.516098 
L 758.042394 368.745366 
L 759.618954 368.745366 
L 760.013094 369.36 
L 760.407233 366.901463 
L 760.801373 369.36 
L 761.195513 368.130732 
L 761.589653 369.36 
L 762.377933 347.233171 
L 762.772073 368.130732 
L 763.560353 369.36 
L 764.348633 368.745366 
L 765.531053 359.525854 
L 765.925193 368.130732 
L 766.319333 369.36 
L 766.713473 369.36 
L 768.684173 366.286829 
L 769.078313 367.516098 
L 769.472453 369.36 
L 769.866593 353.994146 
L 770.260733 369.36 
L 770.654872 368.745366 
L 771.837292 368.745366 
L 772.231432 369.36 
L 772.625572 365.057561 
L 773.019712 369.36 
L 773.413852 358.296585 
L 774.596272 369.36 
L 774.990412 369.36 
L 775.778692 368.130732 
L 776.172832 369.36 
L 776.566972 369.36 
L 777.355252 368.745366 
L 777.749392 369.36 
L 779.325952 369.36 
L 780.114232 368.130732 
L 780.902511 369.36 
L 781.296651 369.36 
L 782.479071 365.057561 
L 782.873211 369.36 
L 784.843911 369.36 
L 786.420471 368.745366 
L 786.814611 368.130732 
L 787.208751 369.36 
L 787.997031 368.130732 
L 788.785311 368.130732 
L 789.573591 369.36 
L 789.967731 368.130732 
L 790.75601 368.745366 
L 791.15015 347.233171 
L 791.54429 368.745366 
L 792.33257 369.36 
L 793.12085 369.36 
L 793.51499 368.745366 
L 793.90913 369.36 
L 796.27397 369.36 
L 796.66811 359.525854 
L 797.06225 366.901463 
L 797.85053 355.838049 
L 798.24467 369.36 
L 798.63881 369.36 
L 799.03295 336.78439 
L 799.42709 368.745366 
L 799.82123 365.057561 
L 801.003649 368.745366 
L 802.186069 369.36 
L 803.368489 369.36 
L 804.156769 368.130732 
L 804.550909 369.36 
L 804.945049 368.745366 
L 806.521609 368.745366 
L 806.915749 368.130732 
L 807.309889 369.36 
L 808.098169 366.901463 
L 808.492309 368.745366 
L 809.674729 369.36 
L 810.463009 369.36 
L 810.857148 368.745366 
L 811.645428 369.36 
L 812.039568 360.140488 
L 812.433708 368.745366 
L 813.616128 369.36 
L 818.739948 369.36 
L 819.134088 363.828293 
L 819.528228 369.36 
L 819.922368 368.745366 
L 821.104787 369.36 
L 821.498927 368.745366 
L 821.893067 369.36 
L 822.681347 368.130732 
L 823.075487 368.745366 
L 824.257907 368.745366 
L 824.652047 369.36 
L 827.411027 363.828293 
L 827.805167 369.36 
L 828.199307 369.36 
L 830.958286 368.745366 
L 831.746566 366.901463 
L 832.534846 368.130732 
L 832.928986 369.36 
L 834.111406 369.36 
L 834.899686 368.745366 
L 835.293826 368.130732 
L 835.687966 369.36 
L 836.082106 369.36 
L 836.476246 368.745366 
L 837.658666 368.745366 
L 838.841086 364.442927 
L 839.629366 369.36 
L 840.023506 369.36 
L 840.417646 362.599024 
L 841.994205 368.745366 
L 842.388345 363.213659 
L 842.782485 361.98439 
L 843.964905 369.36 
L 844.753185 369.36 
L 845.147325 364.442927 
L 845.541465 365.057561 
L 845.935605 367.516098 
L 846.723885 346.618537 
L 847.118025 365.057561 
L 847.906305 361.98439 
L 849.088725 369.36 
L 849.482865 362.599024 
L 850.271145 369.36 
L 850.665284 369.36 
L 851.059424 365.672195 
L 851.453564 369.36 
L 851.847704 369.36 
L 854.606684 362.599024 
L 855.000824 369.36 
L 856.971524 368.745366 
L 858.153944 368.130732 
L 858.548084 369.36 
L 858.942224 369.36 
L 860.518784 368.130732 
L 860.912923 369.36 
L 862.489483 369.36 
L 863.277763 368.745366 
L 863.671903 368.745366 
L 864.066043 366.901463 
L 866.430883 368.130732 
L 866.825023 369.36 
L 867.219163 369.36 
L 868.007443 368.130732 
L 869.189863 369.36 
L 869.584003 368.745366 
L 869.978143 369.36 
L 871.554702 363.213659 
L 874.313682 369.36 
L 875.496102 368.745366 
L 876.284382 363.828293 
L 877.072662 328.794146 
L 877.860942 368.130732 
L 878.255082 368.130732 
L 878.649222 368.745366 
L 879.043362 368.745366 
L 879.437502 369.36 
L 880.225782 369.36 
L 880.619922 361.98439 
L 881.014061 368.745366 
L 881.802341 367.516098 
L 882.196481 369.36 
L 882.590621 369.36 
L 883.378901 367.516098 
L 884.561321 368.745366 
L 884.955461 364.442927 
L 885.349601 369.36 
L 886.137881 369.36 
L 886.532021 368.745366 
L 886.926161 369.36 
L 888.108581 368.130732 
L 889.685141 368.130732 
L 890.079281 367.516098 
L 890.473421 368.745366 
L 891.2617 366.901463 
L 891.65584 368.745366 
L 892.83826 368.745366 
L 894.02068 357.681951 
L 894.41482 361.98439 
L 895.99138 369.36 
L 896.38552 369.36 
L 897.1738 368.745366 
L 897.96208 368.745366 
L 899.53864 364.442927 
L 899.93278 360.755122 
L 900.32692 358.296585 
L 900.72106 359.525854 
L 901.903479 356.452683 
L 902.297619 368.745366 
L 902.691759 369.36 
L 903.085899 368.745366 
L 903.480039 368.745366 
L 903.874179 369.36 
L 904.662459 368.745366 
L 905.450739 369.36 
L 905.844879 367.516098 
L 906.239019 366.286829 
L 906.633159 364.442927 
L 907.421439 369.36 
L 908.209719 366.901463 
L 908.603859 366.901463 
L 909.392139 353.994146 
L 909.786279 369.36 
L 910.180419 368.130732 
L 910.574559 369.36 
L 911.362838 369.36 
L 911.756978 368.745366 
L 912.151118 368.745366 
L 912.545258 369.36 
L 912.939398 368.745366 
L 913.333538 367.516098 
L 913.727678 345.389268 
L 914.121818 368.130732 
L 914.910098 369.36 
L 915.304238 368.745366 
L 915.698378 369.36 
L 916.092518 368.745366 
L 916.486658 369.36 
L 917.274938 369.36 
L 917.669078 368.745366 
L 920.428058 369.36 
L 921.216337 368.745366 
L 922.792897 369.36 
L 923.975317 369.36 
L 926.340157 367.516098 
L 927.128437 368.745366 
L 927.916717 369.36 
L 929.887417 368.130732 
L 930.675697 366.286829 
L 931.463976 369.36 
L 931.858116 368.130732 
L 932.646396 369.36 
L 933.434676 369.36 
L 934.222956 366.286829 
L 935.011236 358.296585 
L 935.405376 367.516098 
L 935.799516 368.130732 
L 936.193656 364.442927 
L 936.981936 369.36 
L 937.376076 369.36 
L 937.770216 366.901463 
L 938.164356 369.36 
L 938.952636 369.36 
L 939.346776 368.745366 
L 939.740916 369.36 
L 940.135056 368.745366 
L 940.529196 362.599024 
L 941.317475 369.36 
L 941.711615 352.764878 
L 942.105755 368.745366 
L 944.864735 362.599024 
L 945.258875 352.150244 
L 945.653015 369.36 
L 946.047155 369.36 
L 946.441295 368.745366 
L 947.229575 369.36 
L 948.806135 368.130732 
L 949.200275 368.130732 
L 949.594415 362.599024 
L 951.170974 369.36 
L 951.959254 369.36 
L 952.747534 368.745366 
L 953.535814 369.36 
L 954.324094 369.36 
L 954.718234 368.745366 
L 955.900654 363.828293 
L 956.294794 368.745366 
L 958.659634 369.36 
L 960.236194 366.286829 
L 961.812753 368.130732 
L 962.206893 368.130732 
L 962.995173 361.98439 
L 963.389313 369.36 
L 963.783453 365.057561 
L 964.177593 368.745366 
L 966.148293 366.901463 
L 966.542433 369.36 
L 967.330713 366.286829 
L 970.089693 366.901463 
L 971.272112 362.599024 
L 971.666252 369.36 
L 972.060392 367.516098 
L 972.454532 369.36 
L 972.848672 368.745366 
L 974.031092 368.745366 
L 975.213512 369.36 
L 975.607652 368.745366 
L 976.001792 360.755122 
L 976.395932 369.36 
L 978.760772 369.36 
L 979.943192 368.745366 
L 980.337332 367.516098 
L 981.125612 369.36 
L 981.519751 369.36 
L 982.308031 368.745366 
L 983.096311 366.286829 
L 984.278731 349.691707 
L 984.672871 369.36 
L 985.067011 366.901463 
L 985.855291 363.828293 
L 986.249431 367.516098 
L 986.643571 369.36 
L 987.037711 368.745366 
L 987.431851 360.755122 
L 988.614271 369.36 
L 989.008411 364.442927 
L 989.402551 363.828293 
L 989.796691 368.130732 
L 990.190831 358.91122 
L 990.584971 355.223415 
L 990.979111 363.213659 
L 991.37325 368.130732 
L 991.76739 369.36 
L 992.55567 367.516098 
L 993.34395 368.745366 
L 993.73809 368.130732 
L 994.52637 367.516098 
L 994.92051 369.36 
L 996.89121 368.745366 
L 997.28535 369.36 
L 997.67949 369.36 
L 998.07363 368.745366 
L 998.46777 366.901463 
L 998.86191 367.516098 
L 1000.43847 368.745366 
L 1000.83261 369.36 
L 1001.620889 369.36 
L 1003.197449 366.901463 
L 1003.591589 369.36 
L 1003.985729 368.745366 
L 1004.379869 369.36 
L 1004.774009 368.745366 
L 1005.168149 369.36 
L 1006.744709 369.36 
L 1007.138849 368.130732 
L 1007.927129 357.681951 
L 1008.715409 369.36 
L 1009.109549 367.516098 
L 1009.503689 369.36 
L 1010.686109 369.36 
L 1011.080249 366.286829 
L 1012.262668 369.36 
L 1012.656808 369.36 
L 1013.445088 360.755122 
L 1013.839228 365.672195 
L 1015.021648 367.516098 
L 1015.415788 369.36 
L 1015.809928 369.36 
L 1016.204068 365.057561 
L 1016.598208 368.745366 
L 1017.386488 369.36 
L 1018.174768 366.286829 
L 1018.568908 368.745366 
L 1020.145468 369.36 
L 1020.539608 366.286829 
L 1020.933748 367.516098 
L 1021.327888 369.36 
L 1022.904447 363.828293 
L 1023.298587 369.36 
L 1023.692727 368.745366 
L 1025.663427 368.745366 
L 1026.845847 363.828293 
L 1027.239987 368.130732 
L 1027.634127 368.745366 
L 1028.422407 369.36 
L 1030.393107 368.745366 
L 1030.787247 369.36 
L 1031.181387 369.36 
L 1031.575526 368.130732 
L 1032.363806 364.442927 
L 1032.757946 365.057561 
L 1033.152086 368.745366 
L 1033.940366 365.057561 
L 1034.334506 365.672195 
L 1034.728646 367.516098 
L 1035.516926 368.130732 
L 1036.305206 369.36 
L 1036.699346 368.130732 
L 1037.881766 369.36 
L 1038.275906 369.36 
L 1038.670046 368.130732 
L 1039.064186 364.442927 
L 1039.458326 369.36 
L 1040.246606 365.672195 
L 1041.429026 368.745366 
L 1041.823165 360.140488 
L 1042.217305 369.36 
L 1043.793865 359.525854 
L 1044.188005 359.525854 
L 1044.582145 339.242927 
L 1044.976285 359.525854 
L 1045.764565 367.516098 
L 1046.158705 369.36 
L 1046.552845 368.745366 
L 1047.341125 368.130732 
L 1048.129405 369.36 
L 1048.523545 369.36 
L 1048.917685 368.130732 
L 1049.311825 367.516098 
L 1049.705965 369.36 
L 1050.100105 369.36 
L 1050.888385 368.130732 
L 1051.282525 368.130732 
L 1051.676664 365.672195 
L 1052.464944 369.36 
L 1053.253224 352.764878 
L 1053.647364 366.286829 
L 1054.435644 355.838049 
L 1054.829784 358.91122 
L 1056.012204 369.36 
L 1057.588764 343.545366 
L 1057.982904 368.130732 
L 1058.377044 369.36 
L 1060.741884 369.36 
L 1061.136024 368.130732 
L 1061.530164 369.36 
L 1062.712583 369.36 
L 1063.106723 368.130732 
L 1063.500863 369.36 
L 1065.865703 369.36 
L 1066.653983 367.516098 
L 1067.048123 357.067317 
L 1067.442263 366.901463 
L 1067.836403 368.130732 
L 1068.624683 369.36 
L 1069.018823 369.36 
L 1070.201243 367.516098 
L 1070.595383 362.599024 
L 1071.383663 369.36 
L 1072.960222 369.36 
L 1074.142642 368.745366 
L 1074.930922 368.745366 
L 1075.719202 367.516098 
L 1077.689902 357.681951 
L 1078.084042 368.745366 
L 1078.872322 356.452683 
L 1079.266462 369.36 
L 1080.448882 369.36 
L 1080.843022 368.745366 
L 1081.237162 353.994146 
L 1081.631302 368.745366 
L 1082.025441 368.745366 
L 1083.207861 368.130732 
L 1083.996141 367.516098 
L 1084.390281 362.599024 
L 1084.784421 369.36 
L 1085.178561 369.36 
L 1085.572701 362.599024 
L 1086.360981 368.130732 
L 1086.755121 368.130732 
L 1087.937541 366.286829 
L 1089.119961 369.36 
L 1089.514101 366.286829 
L 1089.908241 369.36 
L 1093.4555 369.36 
L 1095.03206 368.130732 
L 1096.60862 365.672195 
L 1097.79104 368.745366 
L 1098.97346 369.36 
L 1099.76174 362.599024 
L 1100.15588 369.36 
L 1100.55002 368.745366 
L 1100.94416 369.36 
L 1102.126579 369.36 
L 1103.308999 367.516098 
L 1104.097279 368.130732 
L 1104.885559 369.36 
L 1105.279699 366.901463 
L 1106.462119 368.745366 
L 1107.250399 352.150244 
L 1108.826959 366.286829 
L 1109.615239 366.286829 
L 1110.403519 369.36 
L 1111.980078 369.36 
L 1112.374218 367.516098 
L 1112.768358 369.36 
L 1114.344918 366.286829 
L 1114.739058 362.599024 
L 1115.133198 369.36 
L 1115.527338 367.516098 
L 1115.921478 369.36 
L 1116.315618 368.745366 
L 1117.103898 368.745366 
L 1117.498038 368.130732 
L 1118.286318 368.745366 
L 1119.074598 330.638049 
L 1119.468738 368.745366 
L 1119.862878 368.745366 
L 1120.257018 355.223415 
L 1120.651158 331.252683 
L 1121.439438 368.130732 
L 1122.227717 364.442927 
L 1123.410137 369.36 
L 1123.804277 369.36 
L 1124.198417 368.130732 
L 1125.774977 315.272195 
L 1126.169117 368.745366 
L 1126.563257 368.745366 
L 1128.139817 358.91122 
L 1128.533957 368.745366 
L 1128.928097 368.745366 
L 1129.322237 366.901463 
L 1130.898797 369.36 
L 1131.687077 368.745366 
L 1132.475356 369.36 
L 1132.869496 357.681951 
L 1133.263636 368.745366 
L 1134.446056 368.745366 
L 1134.840196 366.901463 
L 1135.234336 369.36 
L 1135.628476 368.745366 
L 1136.022616 368.745366 
L 1136.416756 369.36 
L 1136.810896 368.745366 
L 1137.599176 368.130732 
L 1138.387456 366.901463 
L 1138.781596 366.901463 
L 1139.175736 367.516098 
L 1139.964016 368.130732 
L 1140.752296 358.91122 
L 1141.146436 368.745366 
L 1141.540576 366.901463 
L 1141.934716 368.130732 
L 1144.693695 369.36 
L 1145.087835 368.130732 
L 1146.664395 369.36 
L 1147.058535 369.36 
L 1147.452675 368.745366 
L 1147.846815 367.516098 
L 1150.999935 368.745366 
L 1151.394075 366.286829 
L 1151.788215 369.36 
L 1152.576494 368.130732 
L 1153.364774 369.36 
L 1154.153054 365.672195 
L 1154.941334 364.442927 
L 1155.729614 369.36 
L 1158.094454 369.36 
L 1158.488594 366.901463 
L 1158.882734 368.745366 
L 1160.459294 364.442927 
L 1160.853434 368.745366 
L 1161.247574 368.130732 
L 1162.035853 369.36 
L 1162.429993 364.442927 
L 1162.824133 368.745366 
L 1164.006553 363.213659 
L 1164.400693 368.130732 
L 1164.794833 365.672195 
L 1165.188973 368.130732 
L 1165.583113 369.36 
L 1167.553813 343.545366 
L 1167.947953 319.574634 
L 1168.342093 366.286829 
L 1170.312793 361.369756 
L 1170.706933 361.369756 
L 1171.101073 369.36 
L 1173.071772 369.36 
L 1173.465912 366.901463 
L 1173.860052 369.36 
L 1174.254192 368.745366 
L 1175.042472 368.745366 
L 1175.436612 365.672195 
L 1175.830752 363.828293 
L 1176.224892 369.36 
L 1178.589732 369.36 
L 1178.983872 365.057561 
L 1181.742852 367.516098 
L 1183.713551 350.306341 
L 1184.107691 367.516098 
L 1184.501831 363.828293 
L 1184.895971 366.901463 
L 1185.684251 369.36 
L 1186.078391 369.36 
L 1186.866671 368.130732 
L 1187.260811 369.36 
L 1188.049091 354.60878 
L 1188.443231 364.442927 
L 1188.837371 369.36 
L 1190.019791 367.516098 
L 1191.202211 369.36 
L 1191.596351 367.516098 
L 1193.56705 368.130732 
L 1193.96119 360.140488 
L 1195.14361 369.36 
L 1196.72017 361.369756 
L 1197.11431 352.764878 
L 1197.50845 368.745366 
L 1197.90259 367.516098 
L 1198.29673 365.672195 
L 1200.66157 369.36 
L 1201.44985 352.150244 
L 1201.84399 368.130732 
L 1206.967809 368.745366 
L 1209.726789 369.36 
L 1210.120929 369.36 
L 1211.303349 368.745366 
L 1211.697489 367.516098 
L 1213.274048 352.764878 
L 1213.668188 366.286829 
L 1214.062328 369.36 
L 1214.456468 369.36 
L 1214.850608 367.516098 
L 1215.244748 368.745366 
L 1215.638888 368.130732 
L 1216.821308 363.828293 
L 1217.215448 368.745366 
L 1217.609588 369.36 
L 1218.397868 369.36 
L 1218.792008 368.745366 
L 1219.186148 367.516098 
L 1220.368568 366.901463 
L 1220.762708 368.745366 
L 1221.156848 306.052683 
L 1221.550988 368.745366 
L 1221.945128 360.755122 
L 1222.339267 293.76 
L 1222.733407 327.564878 
L 1223.127547 341.701463 
L 1223.915827 365.057561 
L 1224.309967 369.36 
L 1224.704107 367.516098 
L 1225.098247 365.057561 
L 1225.492387 341.086829 
L 1225.886527 368.130732 
L 1226.280667 364.442927 
L 1226.674807 368.130732 
L 1227.068947 367.516098 
L 1227.463087 369.36 
L 1227.857227 368.130732 
L 1228.251367 322.647805 
L 1228.645507 357.067317 
L 1229.039647 363.828293 
L 1229.433787 366.901463 
L 1229.827927 352.150244 
L 1230.222067 365.672195 
L 1230.616207 366.286829 
L 1231.010347 368.130732 
L 1231.404487 366.901463 
L 1231.798627 369.36 
L 1232.586906 355.838049 
L 1232.981046 368.130732 
L 1233.375186 333.71122 
L 1234.163466 369.36 
L 1234.557606 369.36 
L 1234.951746 366.901463 
L 1235.345886 366.901463 
L 1235.740026 360.755122 
L 1236.134166 363.213659 
L 1236.528306 369.36 
L 1236.922446 349.691707 
L 1237.316586 366.901463 
L 1238.104866 368.745366 
L 1238.499006 361.98439 
L 1239.681426 368.130732 
L 1240.075566 369.36 
L 1240.863846 369.36 
L 1242.440405 367.516098 
L 1242.834545 368.745366 
L 1243.228685 368.130732 
L 1244.016965 355.838049 
L 1244.411105 368.745366 
L 1244.805245 369.36 
L 1246.381805 369.36 
L 1246.775945 365.672195 
L 1247.564225 363.213659 
L 1247.958365 369.36 
L 1248.352505 362.599024 
L 1248.746645 368.745366 
L 1249.140785 355.838049 
L 1249.929065 369.36 
L 1250.717345 368.745366 
L 1251.111485 356.452683 
L 1251.505625 369.36 
L 1251.899765 361.369756 
L 1253.082184 365.057561 
L 1253.476324 366.901463 
L 1253.870464 361.98439 
L 1254.264604 368.130732 
L 1255.052884 369.36 
L 1255.841164 368.130732 
L 1256.629444 365.672195 
L 1258.600144 368.745366 
L 1258.994284 368.745366 
L 1259.388424 359.525854 
L 1259.782564 367.516098 
L 1260.176704 363.213659 
L 1260.570844 369.36 
L 1261.359124 368.130732 
L 1263.329823 369.36 
L 1263.723963 369.36 
L 1264.118103 368.745366 
L 1264.906383 368.745366 
L 1265.300523 369.36 
L 1266.088803 367.516098 
L 1266.482943 369.36 
L 1267.271223 367.516098 
L 1267.665363 369.36 
L 1268.453643 369.36 
L 1269.241923 367.516098 
L 1270.424343 369.36 
L 1270.818483 360.140488 
L 1271.212623 369.36 
L 1271.606763 353.379512 
L 1272.000903 357.067317 
L 1272.395043 364.442927 
L 1272.789182 361.98439 
L 1274.365742 369.36 
L 1274.759882 363.213659 
L 1275.154022 368.130732 
L 1275.548162 368.745366 
L 1275.942302 368.745366 
L 1277.124722 364.442927 
L 1277.913002 366.901463 
L 1278.307142 359.525854 
L 1278.701282 366.286829 
L 1279.489562 369.36 
L 1280.671982 368.745366 
L 1281.066122 369.36 
L 1285.401661 369.36 
L 1286.189941 368.745366 
L 1286.584081 360.755122 
L 1286.978221 369.36 
L 1288.160641 369.36 
L 1289.343061 367.516098 
L 1289.737201 368.745366 
L 1290.919621 369.36 
L 1293.28446 369.36 
L 1294.46688 368.745366 
L 1294.86102 369.36 
L 1296.04344 368.745366 
L 1296.43758 368.130732 
L 1296.83172 369.36 
L 1298.01414 367.516098 
L 1298.40828 369.36 
L 1299.19656 369.36 
L 1299.5907 365.672195 
L 1299.98484 368.130732 
L 1300.37898 369.36 
L 1300.77312 365.057561 
L 1301.16726 369.36 
L 1301.5614 333.71122 
L 1302.34968 369.36 
L 1302.743819 368.130732 
L 1303.137959 369.36 
L 1303.532099 368.130732 
L 1303.926239 369.36 
L 1305.108659 369.36 
L 1305.896939 336.169756 
L 1307.079359 366.901463 
L 1307.473499 369.36 
L 1307.867639 359.525854 
L 1309.444199 366.901463 
L 1309.838339 369.36 
L 1311.414899 369.36 
L 1311.809039 368.745366 
L 1312.597319 368.130732 
L 1313.779738 364.442927 
L 1314.173878 368.745366 
L 1314.962158 368.745366 
L 1315.356298 369.36 
L 1315.750438 369.36 
L 1316.932858 368.745366 
L 1317.721138 368.745366 
L 1318.115278 366.901463 
L 1318.509418 369.36 
L 1319.297698 362.599024 
L 1319.691838 369.36 
L 1320.480118 366.901463 
L 1321.268398 369.36 
L 1322.450818 369.36 
L 1323.239097 368.130732 
L 1324.027377 369.36 
L 1325.603937 369.36 
L 1325.998077 368.130732 
L 1326.786357 368.745366 
L 1327.180497 366.901463 
L 1327.968777 349.077073 
L 1328.362917 366.286829 
L 1328.757057 368.745366 
L 1329.151197 363.828293 
L 1329.545337 368.745366 
L 1329.939477 355.223415 
L 1330.333617 369.36 
L 1332.304317 353.994146 
L 1332.698457 359.525854 
L 1333.092596 368.745366 
L 1333.486736 363.213659 
L 1334.275016 360.140488 
L 1335.063296 369.36 
L 1335.457436 365.057561 
L 1335.851576 363.213659 
L 1336.245716 368.130732 
L 1337.033996 368.130732 
L 1337.428136 363.213659 
L 1337.822276 360.755122 
L 1339.398836 363.828293 
L 1339.792976 365.057561 
L 1340.187116 368.130732 
L 1340.975396 366.901463 
L 1341.369536 351.53561 
L 1341.763676 369.36 
L 1342.157816 368.745366 
L 1342.551956 355.223415 
L 1342.946095 369.36 
L 1343.340235 367.516098 
L 1343.734375 369.36 
L 1344.522655 368.745366 
L 1344.916795 350.920976 
L 1345.705075 346.618537 
L 1346.887495 363.828293 
L 1348.069915 364.442927 
L 1348.464055 367.516098 
L 1349.252335 356.452683 
L 1349.646475 358.296585 
L 1350.040615 369.36 
L 1350.434755 353.994146 
L 1351.223035 369.36 
L 1351.617175 368.745366 
L 1353.193734 368.130732 
L 1353.982014 368.745366 
L 1354.770294 358.91122 
L 1355.164434 368.745366 
L 1355.952714 369.36 
L 1356.740994 368.745366 
L 1357.135134 369.36 
L 1357.529274 366.901463 
L 1358.711694 365.672195 
L 1359.105834 368.130732 
L 1360.682394 369.36 
L 1361.864814 364.442927 
L 1362.258954 363.828293 
L 1363.047233 358.296585 
L 1365.806213 360.755122 
L 1366.200353 366.286829 
L 1366.988633 357.067317 
L 1367.382773 367.516098 
L 1367.776913 369.36 
L 1368.959333 360.140488 
L 1369.353473 353.994146 
L 1370.535893 368.745366 
L 1370.930033 365.057561 
L 1371.324173 369.36 
L 1371.718313 368.745366 
L 1372.112453 368.745366 
L 1372.506593 363.213659 
L 1372.900733 367.516098 
L 1373.689012 359.525854 
L 1375.265572 366.901463 
L 1375.659712 344.16 
L 1376.447992 369.36 
L 1376.842132 369.36 
L 1377.630412 367.516098 
L 1378.024552 369.36 
L 1378.418692 361.369756 
L 1378.812832 363.213659 
L 1379.206972 366.286829 
L 1379.995252 347.233171 
L 1380.389392 366.901463 
L 1380.783532 368.130732 
L 1381.177672 365.672195 
L 1381.571812 369.36 
L 1382.360092 368.130732 
L 1382.754232 362.599024 
L 1383.542511 369.36 
L 1383.936651 369.36 
L 1384.330791 319.574634 
L 1384.724931 359.525854 
L 1385.119071 368.130732 
L 1386.301491 363.213659 
L 1386.695631 368.745366 
L 1387.483911 369.36 
L 1387.878051 359.525854 
L 1389.060471 369.36 
L 1391.031171 366.901463 
L 1391.819451 272.247805 
L 1392.607731 366.286829 
L 1393.001871 365.672195 
L 1393.39601 334.325854 
L 1394.57843 367.516098 
L 1394.97257 360.140488 
L 1395.36671 368.745366 
L 1395.76085 341.086829 
L 1396.54913 366.901463 
L 1397.33741 366.901463 
L 1397.73155 368.130732 
L 1398.12569 361.369756 
L 1398.51983 369.36 
L 1399.30811 358.91122 
L 1399.70225 368.745366 
L 1400.09639 368.745366 
L 1401.27881 366.901463 
L 1401.67295 369.36 
L 1402.06709 369.36 
L 1403.249509 363.213659 
L 1403.643649 369.36 
L 1405.614349 366.286829 
L 1406.008489 367.516098 
L 1406.796769 360.755122 
L 1407.979189 368.130732 
L 1408.373329 369.36 
L 1409.161609 369.36 
L 1409.555749 367.516098 
L 1409.949889 369.36 
L 1410.344029 366.286829 
L 1410.738169 366.901463 
L 1411.132309 360.755122 
L 1411.526449 358.91122 
L 1411.920589 362.599024 
L 1415.073708 368.745366 
L 1415.467848 368.130732 
L 1415.861988 369.36 
L 1416.256128 359.525854 
L 1417.832688 369.36 
L 1418.226828 368.745366 
L 1418.620968 355.838049 
L 1419.015108 369.36 
L 1420.985808 360.755122 
L 1421.379948 369.36 
L 1421.774088 369.36 
L 1422.168228 359.525854 
L 1422.562368 365.057561 
L 1422.956508 367.516098 
L 1423.350647 351.53561 
L 1423.744787 361.369756 
L 1424.533067 368.745366 
L 1425.321347 369.36 
L 1425.715487 368.130732 
L 1426.109627 368.745366 
L 1426.503767 365.057561 
L 1428.080327 368.130732 
L 1428.474467 369.36 
L 1428.868607 368.745366 
L 1429.262747 369.36 
L 1430.051027 369.36 
L 1430.445167 360.755122 
L 1433.598286 368.745366 
L 1433.992426 360.755122 
L 1434.780706 363.828293 
L 1435.174846 367.516098 
L 1435.963126 368.130732 
L 1437.145546 368.130732 
L 1437.933826 363.213659 
L 1438.327966 366.901463 
L 1438.722106 369.36 
L 1439.116246 367.516098 
L 1439.904526 366.286829 
L 1440.692806 369.36 
L 1442.269366 368.745366 
L 1442.663506 368.745366 
L 1443.057646 369.36 
L 1443.845925 369.36 
L 1444.240065 366.286829 
L 1445.816625 365.057561 
L 1446.604905 356.452683 
L 1447.393185 369.36 
L 1447.787325 368.130732 
L 1448.575605 369.36 
L 1448.969745 369.36 
L 1449.363885 368.130732 
L 1449.758025 368.745366 
L 1450.546305 369.36 
L 1450.940445 364.442927 
L 1451.728725 352.764878 
L 1452.122865 352.764878 
L 1452.517005 339.857561 
L 1452.911145 361.98439 
L 1453.305284 363.828293 
L 1453.699424 351.53561 
L 1454.093564 365.672195 
L 1454.881844 365.057561 
L 1456.064264 366.901463 
L 1456.458404 368.130732 
L 1457.246684 347.233171 
L 1457.640824 366.901463 
L 1458.034964 365.057561 
L 1458.429104 366.901463 
L 1458.823244 369.36 
L 1459.611524 368.745366 
L 1461.582224 369.36 
L 1461.976364 369.36 
L 1462.370504 368.745366 
L 1462.764644 369.36 
L 1466.311903 369.36 
L 1467.100183 368.745366 
L 1469.465023 369.36 
L 1470.647443 369.36 
L 1471.041583 368.130732 
L 1471.435723 367.516098 
L 1471.829863 368.745366 
L 1472.224003 363.828293 
L 1472.618143 368.745366 
L 1473.012283 368.745366 
L 1473.406422 369.36 
L 1473.800562 355.223415 
L 1474.194702 348.462439 
L 1474.982982 368.745366 
L 1475.771262 362.599024 
L 1476.165402 354.60878 
L 1476.559542 363.828293 
L 1478.136102 364.442927 
L 1478.924382 368.130732 
L 1479.318522 363.828293 
L 1480.106802 369.36 
L 1481.683362 361.98439 
L 1482.077502 355.223415 
L 1482.471642 343.545366 
L 1484.048201 369.36 
L 1484.442341 368.130732 
L 1484.836481 367.516098 
L 1485.230621 354.60878 
L 1486.807181 369.36 
L 1488.383741 369.36 
L 1489.172021 365.672195 
L 1489.566161 353.379512 
L 1489.960301 368.130732 
L 1490.354441 368.130732 
L 1493.113421 358.296585 
L 1493.50756 365.057561 
L 1493.9017 367.516098 
L 1494.29584 368.130732 
L 1495.08412 361.98439 
L 1495.47826 364.442927 
L 1495.8724 365.672195 
L 1496.66068 366.901463 
L 1497.05482 366.901463 
L 1499.41966 368.745366 
L 1499.8138 369.36 
L 1502.96692 369.36 
L 1504.149339 365.672195 
L 1504.543479 369.36 
L 1504.937619 369.36 
L 1506.120039 365.057561 
L 1506.514179 364.442927 
L 1507.302459 368.745366 
L 1507.696599 369.36 
L 1508.484879 358.91122 
L 1509.273159 369.36 
L 1509.667299 368.130732 
L 1510.849719 360.140488 
L 1511.637999 369.36 
L 1512.032139 369.36 
L 1512.426279 361.98439 
L 1512.820419 369.36 
L 1514.002838 369.36 
L 1514.791118 368.130732 
L 1515.185258 358.91122 
L 1516.367678 358.91122 
L 1516.761818 366.901463 
L 1517.155958 368.130732 
L 1518.338378 368.745366 
L 1518.732518 363.828293 
L 1519.520798 366.286829 
L 1520.703218 355.223415 
L 1521.097358 368.745366 
L 1521.491498 329.40878 
L 1521.885638 66.96 
L 1522.279778 344.16 
L 1522.673918 367.516098 
L 1523.068058 366.286829 
L 1523.856337 354.60878 
L 1524.250477 369.36 
L 1524.644617 365.672195 
L 1525.038757 368.130732 
L 1525.827037 366.901463 
L 1526.221177 362.599024 
L 1526.615317 365.672195 
L 1528.980157 368.130732 
L 1529.374297 363.828293 
L 1530.162577 369.36 
L 1530.556717 369.36 
L 1530.950857 368.745366 
L 1531.344997 369.36 
L 1531.739137 361.369756 
L 1532.133277 368.745366 
L 1533.315697 369.36 
L 1533.709836 366.286829 
L 1534.103976 368.745366 
L 1534.498116 368.130732 
L 1534.892256 363.213659 
L 1535.680536 369.36 
L 1536.074676 367.516098 
L 1536.468816 364.442927 
L 1537.257096 361.98439 
L 1537.651236 369.36 
L 1538.045376 361.369756 
L 1538.439516 368.745366 
L 1539.227796 369.36 
L 1541.198496 369.36 
L 1542.380916 365.672195 
L 1542.775056 368.745366 
L 1543.169196 369.36 
L 1543.563336 365.672195 
L 1548.293015 369.36 
L 1549.869575 369.36 
L 1550.657855 363.828293 
L 1551.840275 368.745366 
L 1552.234415 366.286829 
L 1553.022695 366.901463 
L 1554.205114 368.130732 
L 1554.599254 369.36 
L 1556.175814 368.745366 
L 1557.358234 369.36 
L 1557.752374 369.36 
L 1560.117214 355.223415 
L 1560.511354 368.745366 
L 1562.482054 352.150244 
L 1564.058613 369.36 
L 1564.846893 360.755122 
L 1565.635173 368.745366 
L 1566.029313 369.36 
L 1566.423453 366.286829 
L 1567.211733 367.516098 
L 1567.605873 364.442927 
L 1568.000013 368.745366 
L 1568.788293 368.745366 
L 1570.364853 369.36 
L 1576.671092 369.36 
L 1577.459372 366.286829 
L 1577.853512 369.36 
L 1584.948031 366.901463 
L 1585.736311 368.745366 
L 1586.918731 365.672195 
L 1588.495291 365.057561 
L 1589.283571 369.36 
L 1591.254271 369.36 
L 1591.648411 368.745366 
L 1592.830831 368.745366 
L 1593.224971 363.828293 
L 1594.01325 368.745366 
L 1594.40739 362.599024 
L 1594.80153 369.36 
L 1597.16637 369.36 
L 1597.95465 365.672195 
L 1598.34879 368.745366 
L 1599.13707 369.36 
L 1599.92535 366.901463 
L 1600.31949 368.745366 
L 1600.71363 366.901463 
L 1601.10777 361.369756 
L 1602.29019 368.745366 
L 1602.68433 368.745366 
L 1603.07847 365.057561 
L 1605.049169 368.745366 
L 1605.837449 369.36 
L 1610.567129 369.36 
L 1610.961269 367.516098 
L 1611.355409 361.98439 
L 1611.749549 369.36 
L 1613.720249 369.36 
L 1614.902668 358.296585 
L 1615.690948 361.369756 
L 1616.085088 369.36 
L 1616.479228 365.057561 
L 1616.873368 368.745366 
L 1617.267508 368.745366 
L 1617.661648 362.599024 
L 1618.055788 368.745366 
L 1619.238208 369.36 
L 1620.026488 359.525854 
L 1620.814768 368.130732 
L 1621.997188 368.130732 
L 1623.967888 369.36 
L 1624.362027 369.36 
L 1624.756167 366.901463 
L 1625.544447 366.286829 
L 1626.332727 368.745366 
L 1629.091707 357.067317 
L 1629.485847 365.057561 
L 1630.274127 369.36 
L 1632.244827 357.067317 
L 1633.033107 368.745366 
L 1633.427247 358.296585 
L 1634.609666 369.36 
L 1635.397946 363.213659 
L 1635.792086 369.36 
L 1636.580366 361.369756 
L 1637.368646 367.516098 
L 1637.762786 368.745366 
L 1638.156926 365.672195 
L 1639.339346 365.672195 
L 1640.127626 369.36 
L 1640.521766 367.516098 
L 1641.310046 369.36 
L 1641.704186 361.98439 
L 1642.098326 369.36 
L 1643.674886 369.36 
L 1644.069026 368.130732 
L 1644.463165 368.745366 
L 1646.433865 365.672195 
L 1647.616285 366.286829 
L 1648.010425 355.223415 
L 1648.404565 369.36 
L 1648.798705 366.901463 
L 1649.586985 359.525854 
L 1650.769405 368.745366 
L 1651.163545 368.745366 
L 1651.951825 366.901463 
L 1652.740105 355.223415 
L 1654.710804 358.91122 
L 1655.499084 367.516098 
L 1656.681504 369.36 
L 1657.863924 360.755122 
L 1658.258064 369.36 
L 1659.440484 369.36 
L 1660.228764 360.755122 
L 1660.622904 369.36 
L 1661.411184 368.745366 
L 1662.593604 368.745366 
L 1662.987744 369.36 
L 1664.170164 369.36 
L 1664.958443 368.745366 
L 1665.746723 369.36 
L 1669.293983 369.36 
L 1669.688123 368.745366 
L 1672.447103 365.057561 
L 1672.841243 368.130732 
L 1673.235383 357.681951 
L 1674.023663 368.745366 
L 1674.417802 369.36 
L 1674.811942 365.672195 
L 1675.600222 363.828293 
L 1676.388502 368.130732 
L 1676.782642 360.755122 
L 1677.176782 369.36 
L 1680.329902 369.36 
L 1681.118182 368.745366 
L 1681.118182 368.745366 
" clip-path="url(#p4163725706)" style="fill: none; stroke: #1f77b4; stroke-width: 1.5; stroke-linecap: round"/>
   </g>
   <g id="patch_3">
    <path d="M 243 384.48 
L 243 51.84 
" style="fill: none; stroke: #ffffff; stroke-width: 0.8; stroke-linejoin: miter; stroke-linecap: square"/>
   </g>
   <g id="patch_4">
    <path d="M 1749.6 384.48 
L 1749.6 51.84 
" style="fill: none; stroke: #ffffff; stroke-width: 0.8; stroke-linejoin: miter; stroke-linecap: square"/>
   </g>
   <g id="patch_5">
    <path d="M 243 384.48 
L 1749.6 384.48 
" style="fill: none; stroke: #ffffff; stroke-width: 0.8; stroke-linejoin: miter; stroke-linecap: square"/>
   </g>
   <g id="patch_6">
    <path d="M 243 51.84 
L 1749.6 51.84 
" style="fill: none; stroke: #ffffff; stroke-width: 0.8; stroke-linejoin: miter; stroke-linecap: square"/>
   </g>
   <g id="text_17">
    <!-- Messages sent per day over a time period -->
    <g style="fill: #262626" transform="translate(772.869375 45.84) scale(0.24 -0.24)">
     <defs>
      <path id="ArialMT-4d" d="M 475 0 
L 475 4581 
L 1388 4581 
L 2472 1338 
Q 2622 884 2691 659 
Q 2769 909 2934 1394 
L 4031 4581 
L 4847 4581 
L 4847 0 
L 4263 0 
L 4263 3834 
L 2931 0 
L 2384 0 
L 1059 3900 
L 1059 0 
L 475 0 
z
" transform="scale(0.015625)"/>
      <path id="ArialMT-65" d="M 2694 1069 
L 3275 997 
Q 3138 488 2766 206 
Q 2394 -75 1816 -75 
Q 1088 -75 661 373 
Q 234 822 234 1631 
Q 234 2469 665 2931 
Q 1097 3394 1784 3394 
Q 2450 3394 2872 2941 
Q 3294 2488 3294 1666 
Q 3294 1616 3291 1516 
L 816 1516 
Q 847 969 1125 678 
Q 1403 388 1819 388 
Q 2128 388 2347 550 
Q 2566 713 2694 1069 
z
M 847 1978 
L 2700 1978 
Q 2663 2397 2488 2606 
Q 2219 2931 1791 2931 
Q 1403 2931 1139 2672 
Q 875 2413 847 1978 
z
" transform="scale(0.015625)"/>
      <path id="ArialMT-73" d="M 197 991 
L 753 1078 
Q 800 744 1014 566 
Q 1228 388 1613 388 
Q 2000 388 2187 545 
Q 2375 703 2375 916 
Q 2375 1106 2209 1216 
Q 2094 1291 1634 1406 
Q 1016 1563 777 1677 
Q 538 1791 414 1992 
Q 291 2194 291 2438 
Q 291 2659 392 2848 
Q 494 3038 669 3163 
Q 800 3259 1026 3326 
Q 1253 3394 1513 3394 
Q 1903 3394 2198 3281 
Q 2494 3169 2634 2976 
Q 2775 2784 2828 2463 
L 2278 2388 
Q 2241 2644 2061 2787 
Q 1881 2931 1553 2931 
Q 1166 2931 1000 2803 
Q 834 2675 834 2503 
Q 834 2394 903 2306 
Q 972 2216 1119 2156 
Q 1203 2125 1616 2013 
Q 2213 1853 2448 1751 
Q 2684 1650 2818 1456 
Q 2953 1263 2953 975 
Q 2953 694 2789 445 
Q 2625 197 2315 61 
Q 2006 -75 1616 -75 
Q 969 -75 630 194 
Q 291 463 197 991 
z
" transform="scale(0.015625)"/>
      <path id="ArialMT-61" d="M 2588 409 
Q 2275 144 1986 34 
Q 1697 -75 1366 -75 
Q 819 -75 525 192 
Q 231 459 231 875 
Q 231 1119 342 1320 
Q 453 1522 633 1644 
Q 813 1766 1038 1828 
Q 1203 1872 1538 1913 
Q 2219 1994 2541 2106 
Q 2544 2222 2544 2253 
Q 2544 2597 2384 2738 
Q 2169 2928 1744 2928 
Q 1347 2928 1158 2789 
Q 969 2650 878 2297 
L 328 2372 
Q 403 2725 575 2942 
Q 747 3159 1072 3276 
Q 1397 3394 1825 3394 
Q 2250 3394 2515 3294 
Q 2781 3194 2906 3042 
Q 3031 2891 3081 2659 
Q 3109 2516 3109 2141 
L 3109 1391 
Q 3109 606 3145 398 
Q 3181 191 3288 0 
L 2700 0 
Q 2613 175 2588 409 
z
M 2541 1666 
Q 2234 1541 1622 1453 
Q 1275 1403 1131 1340 
Q 988 1278 909 1158 
Q 831 1038 831 891 
Q 831 666 1001 516 
Q 1172 366 1500 366 
Q 1825 366 2078 508 
Q 2331 650 2450 897 
Q 2541 1088 2541 1459 
L 2541 1666 
z
" transform="scale(0.015625)"/>
      <path id="ArialMT-67" d="M 319 -275 
L 866 -356 
Q 900 -609 1056 -725 
Q 1266 -881 1628 -881 
Q 2019 -881 2231 -725 
Q 2444 -569 2519 -288 
Q 2563 -116 2559 434 
Q 2191 0 1641 0 
Q 956 0 581 494 
Q 206 988 206 1678 
Q 206 2153 378 2554 
Q 550 2956 876 3175 
Q 1203 3394 1644 3394 
Q 2231 3394 2613 2919 
L 2613 3319 
L 3131 3319 
L 3131 450 
Q 3131 -325 2973 -648 
Q 2816 -972 2473 -1159 
Q 2131 -1347 1631 -1347 
Q 1038 -1347 672 -1080 
Q 306 -813 319 -275 
z
M 784 1719 
Q 784 1066 1043 766 
Q 1303 466 1694 466 
Q 2081 466 2343 764 
Q 2606 1063 2606 1700 
Q 2606 2309 2336 2618 
Q 2066 2928 1684 2928 
Q 1309 2928 1046 2623 
Q 784 2319 784 1719 
z
" transform="scale(0.015625)"/>
      <path id="ArialMT-20" transform="scale(0.015625)"/>
      <path id="ArialMT-6e" d="M 422 0 
L 422 3319 
L 928 3319 
L 928 2847 
Q 1294 3394 1984 3394 
Q 2284 3394 2536 3286 
Q 2788 3178 2913 3003 
Q 3038 2828 3088 2588 
Q 3119 2431 3119 2041 
L 3119 0 
L 2556 0 
L 2556 2019 
Q 2556 2363 2490 2533 
Q 2425 2703 2258 2804 
Q 2091 2906 1866 2906 
Q 1506 2906 1245 2678 
Q 984 2450 984 1813 
L 984 0 
L 422 0 
z
" transform="scale(0.015625)"/>
      <path id="ArialMT-74" d="M 1650 503 
L 1731 6 
Q 1494 -44 1306 -44 
Q 1000 -44 831 53 
Q 663 150 594 308 
Q 525 466 525 972 
L 525 2881 
L 113 2881 
L 113 3319 
L 525 3319 
L 525 4141 
L 1084 4478 
L 1084 3319 
L 1650 3319 
L 1650 2881 
L 1084 2881 
L 1084 941 
Q 1084 700 1114 631 
Q 1144 563 1211 522 
Q 1278 481 1403 481 
Q 1497 481 1650 503 
z
" transform="scale(0.015625)"/>
      <path id="ArialMT-70" d="M 422 -1272 
L 422 3319 
L 934 3319 
L 934 2888 
Q 1116 3141 1344 3267 
Q 1572 3394 1897 3394 
Q 2322 3394 2647 3175 
Q 2972 2956 3137 2557 
Q 3303 2159 3303 1684 
Q 3303 1175 3120 767 
Q 2938 359 2589 142 
Q 2241 -75 1856 -75 
Q 1575 -75 1351 44 
Q 1128 163 984 344 
L 984 -1272 
L 422 -1272 
z
M 931 1641 
Q 931 1000 1190 694 
Q 1450 388 1819 388 
Q 2194 388 2461 705 
Q 2728 1022 2728 1688 
Q 2728 2322 2467 2637 
Q 2206 2953 1844 2953 
Q 1484 2953 1207 2617 
Q 931 2281 931 1641 
z
" transform="scale(0.015625)"/>
      <path id="ArialMT-72" d="M 416 0 
L 416 3319 
L 922 3319 
L 922 2816 
Q 1116 3169 1280 3281 
Q 1444 3394 1641 3394 
Q 1925 3394 2219 3213 
L 2025 2691 
Q 1819 2813 1613 2813 
Q 1428 2813 1281 2702 
Q 1134 2591 1072 2394 
Q 978 2094 978 1738 
L 978 0 
L 416 0 
z
" transform="scale(0.015625)"/>
      <path id="ArialMT-64" d="M 2575 0 
L 2575 419 
Q 2259 -75 1647 -75 
Q 1250 -75 917 144 
Q 584 363 401 755 
Q 219 1147 219 1656 
Q 219 2153 384 2558 
Q 550 2963 881 3178 
Q 1213 3394 1622 3394 
Q 1922 3394 2156 3267 
Q 2391 3141 2538 2938 
L 2538 4581 
L 3097 4581 
L 3097 0 
L 2575 0 
z
M 797 1656 
Q 797 1019 1065 703 
Q 1334 388 1700 388 
Q 2069 388 2326 689 
Q 2584 991 2584 1609 
Q 2584 2291 2321 2609 
Q 2059 2928 1675 2928 
Q 1300 2928 1048 2622 
Q 797 2316 797 1656 
z
" transform="scale(0.015625)"/>
      <path id="ArialMT-79" d="M 397 -1278 
L 334 -750 
Q 519 -800 656 -800 
Q 844 -800 956 -737 
Q 1069 -675 1141 -563 
Q 1194 -478 1313 -144 
Q 1328 -97 1363 -6 
L 103 3319 
L 709 3319 
L 1400 1397 
Q 1534 1031 1641 628 
Q 1738 1016 1872 1384 
L 2581 3319 
L 3144 3319 
L 1881 -56 
Q 1678 -603 1566 -809 
Q 1416 -1088 1222 -1217 
Q 1028 -1347 759 -1347 
Q 597 -1347 397 -1278 
z
" transform="scale(0.015625)"/>
      <path id="ArialMT-6f" d="M 213 1659 
Q 213 2581 725 3025 
Q 1153 3394 1769 3394 
Q 2453 3394 2887 2945 
Q 3322 2497 3322 1706 
Q 3322 1066 3130 698 
Q 2938 331 2570 128 
Q 2203 -75 1769 -75 
Q 1072 -75 642 372 
Q 213 819 213 1659 
z
M 791 1659 
Q 791 1022 1069 705 
Q 1347 388 1769 388 
Q 2188 388 2466 706 
Q 2744 1025 2744 1678 
Q 2744 2294 2464 2611 
Q 2184 2928 1769 2928 
Q 1347 2928 1069 2612 
Q 791 2297 791 1659 
z
" transform="scale(0.015625)"/>
      <path id="ArialMT-76" d="M 1344 0 
L 81 3319 
L 675 3319 
L 1388 1331 
Q 1503 1009 1600 663 
Q 1675 925 1809 1294 
L 2547 3319 
L 3125 3319 
L 1869 0 
L 1344 0 
z
" transform="scale(0.015625)"/>
      <path id="ArialMT-69" d="M 425 3934 
L 425 4581 
L 988 4581 
L 988 3934 
L 425 3934 
z
M 425 0 
L 425 3319 
L 988 3319 
L 988 0 
L 425 0 
z
" transform="scale(0.015625)"/>
      <path id="ArialMT-6d" d="M 422 0 
L 422 3319 
L 925 3319 
L 925 2853 
Q 1081 3097 1340 3245 
Q 1600 3394 1931 3394 
Q 2300 3394 2536 3241 
Q 2772 3088 2869 2813 
Q 3263 3394 3894 3394 
Q 4388 3394 4653 3120 
Q 4919 2847 4919 2278 
L 4919 0 
L 4359 0 
L 4359 2091 
Q 4359 2428 4304 2576 
Q 4250 2725 4106 2815 
Q 3963 2906 3769 2906 
Q 3419 2906 3187 2673 
Q 2956 2441 2956 1928 
L 2956 0 
L 2394 0 
L 2394 2156 
Q 2394 2531 2256 2718 
Q 2119 2906 1806 2906 
Q 1569 2906 1367 2781 
Q 1166 2656 1075 2415 
Q 984 2175 984 1722 
L 984 0 
L 422 0 
z
" transform="scale(0.015625)"/>
     </defs>
     <use xlink:href="#ArialMT-4d"/>
     <use xlink:href="#ArialMT-65" x="83.300781"/>
     <use xlink:href="#ArialMT-73" x="138.916016"/>
     <use xlink:href="#ArialMT-73" x="188.916016"/>
     <use xlink:href="#ArialMT-61" x="238.916016"/>
     <use xlink:href="#ArialMT-67" x="294.53125"/>
     <use xlink:href="#ArialMT-65" x="350.146484"/>
     <use xlink:href="#ArialMT-73" x="405.761719"/>
     <use xlink:href="#ArialMT-20" x="455.761719"/>
     <use xlink:href="#ArialMT-73" x="483.544922"/>
     <use xlink:href="#ArialMT-65" x="533.544922"/>
     <use xlink:href="#ArialMT-6e" x="589.160156"/>
     <use xlink:href="#ArialMT-74" x="644.775391"/>
     <use xlink:href="#ArialMT-20" x="672.558594"/>
     <use xlink:href="#ArialMT-70" x="700.341797"/>
     <use xlink:href="#ArialMT-65" x="755.957031"/>
     <use xlink:href="#ArialMT-72" x="811.572266"/>
     <use xlink:href="#ArialMT-20" x="844.873047"/>
     <use xlink:href="#ArialMT-64" x="872.65625"/>
     <use xlink:href="#ArialMT-61" x="928.271484"/>
     <use xlink:href="#ArialMT-79" x="983.886719"/>
     <use xlink:href="#ArialMT-20" x="1033.886719"/>
     <use xlink:href="#ArialMT-6f" x="1061.669922"/>
     <use xlink:href="#ArialMT-76" x="1117.285156"/>
     <use xlink:href="#ArialMT-65" x="1167.285156"/>
     <use xlink:href="#ArialMT-72" x="1222.900391"/>
     <use xlink:href="#ArialMT-20" x="1256.201172"/>
     <use xlink:href="#ArialMT-61" x="1283.984375"/>
     <use xlink:href="#ArialMT-20" x="1339.599609"/>
     <use xlink:href="#ArialMT-74" x="1367.382812"/>
     <use xlink:href="#ArialMT-69" x="1395.166016"/>
     <use xlink:href="#ArialMT-6d" x="1417.382812"/>
     <use xlink:href="#ArialMT-65" x="1500.683594"/>
     <use xlink:href="#ArialMT-20" x="1556.298828"/>
     <use xlink:href="#ArialMT-70" x="1584.082031"/>
     <use xlink:href="#ArialMT-65" x="1639.697266"/>
     <use xlink:href="#ArialMT-72" x="1695.3125"/>
     <use xlink:href="#ArialMT-69" x="1728.613281"/>
     <use xlink:href="#ArialMT-6f" x="1750.830078"/>
     <use xlink:href="#ArialMT-64" x="1806.445312"/>
    </g>
   </g>
  </g>
 </g>
 <defs>
  <clipPath id="p4163725706">
   <rect x="243" y="51.84" width="1506.6" height="332.64"/>
  </clipPath>
 </defs>
</svg>
